
<svg xmlns="http://www.w3.org/2000/svg" version="1.1" xmlns:xlink="http://www.w3.org/1999/xlink" preserveAspectRatio="none" x="0px" y="0px" width="550px" height="400px" viewBox="0 0 550 400">
<defs>
<g id="Layer0_0_FILL">
<path fill="#006699" stroke="none" d="
M 98.05 149.8
L 98.05 134.45 23.15 134.45
Q -12.05 136 -49.7 164.4 -15.05 148.8 21.75 149.8
L 98.05 149.8
M 98.05 114.95
L 98.05 99.65 23.15 99.65
Q -12.05 101.2 -49.7 129.6 -15.05 114 21.75 114.95
L 98.05 114.95
M 98.05 80.15
L 98.05 64.85 23.15 64.85
Q -12.05 66.4 -49.7 94.8 -15.05 79.2 21.75 80.15
L 98.05 80.15
M 44.75 -95.8
Q 73.85 -70.9 87.5 -38.3 103.7 0.8 105.2 52.6 117.05 83.8 147.15 92.3 117.85 145.3 57.1 190.45 153.9 131.4 158.15 85.3 118.15 76.4 113.45 39.95 116.65 1.1 103.85 -45.7 65.5 -129.9 -14.5 -132
L -20 -132
Q -85.3 -141.2 -110.05 -190.45 -154.6 -174.45 -158.15 -56.8 -144.45 -135.75 -112.8 -171.7 -83.4 -119.75 -14.4 -118.75 15.15 -118.75 44.75 -95.8 Z"/>
</g>
</defs>

<g transform="matrix( 1, 0, 0, 1, 252.95,203.7) ">
<g transform="matrix( 1, 0, 0, 1, 0,0) ">
<use xlink:href="#Layer0_0_FILL"/>
</g>
</g>
</svg>
